{
  "asset": {
    "version": "2.0",
    "generator": "kamae"
  },
  "scene": 0,
  "scenes": [
    {
      "nodes": [
        0
      ]
    }
  ],
  "nodes": [
    {
      "mesh": 0
    }
  ],
  "meshes": [
    {
      "name": "character",
      "primitives": [
        {
          "attributes": {
            "POSITION": 0,
            "NORMAL": 1
          },
          "indices": 2,
          "mode": 4
        }
      ]
    }
  ],
  "accessors": [
    {
      "bufferView": 0,
      "componentType": 5126,
      "count": 216,
      "type": "VEC3",
      "min": [
        -0.4000000059604645,
        -0.5,
        -0.36000001430511475
      ],
      "max": [
        0.4000000059604645,
        0.5600000023841858,
        0.6200000047683716
      ]
    },
    {
      "bufferView": 1,
      "componentType": 5126,
      "count": 216,
      "type": "VEC3",
      "min": [
        -1.0,
        -1.0,
        -1.0
      ],
      "max": [
        1.0,
        1.0,
        1.0
      ]
    },
    {
      "bufferView": 2,
      "componentType": 5123,
      "count": 324,
      "type": "SCALAR"
    }
  ],
  "bufferViews": [
    {
      "buffer": 0,
      "byteOffset": 0,
      "byteLength": 2592
    },
    {
      "buffer": 0,
      "byteOffset": 2592,
      "byteLength": 2592
    },
    {
      "buffer": 0,
      "byteOffset": 5184,
      "byteLength": 648
    }
  ],
  "buffers": [
    {
      "uri": "character.bin",
      "byteLength": 5832
    }
  ]
}
